<?xml version="1.0" encoding="UTF-8" standalone="no"?>
<!-- Generator: Adobe Illustrator 16.0.0, SVG Export Plug-In . SVG Version: 6.00 Build 0)  -->

<svg
   version="1.1"
   x="0px"
   y="0px"
   width="295.241"
   height="295.23801"
   viewBox="0 0 295.241 295.23801"
   enable-background="new 0 0 512 512"
   xml:space="preserve"
   id="svg175"
   sodipodi:docname="AppIcon2.svg"
   inkscape:version="1.1.2 (0a00cf5339, 2022-02-04)"
   xmlns:inkscape="http://www.inkscape.org/namespaces/inkscape"
   xmlns:sodipodi="http://sodipodi.sourceforge.net/DTD/sodipodi-0.dtd"
   xmlns:xlink="http://www.w3.org/1999/xlink"
   xmlns="http://www.w3.org/2000/svg"
   xmlns:svg="http://www.w3.org/2000/svg"><defs
   id="defs179" /><sodipodi:namedview
   id="namedview177"
   pagecolor="#ffffff"
   bordercolor="#666666"
   borderopacity="1.0"
   inkscape:pageshadow="2"
   inkscape:pageopacity="0.0"
   inkscape:pagecheckerboard="0"
   showgrid="false"
   fit-margin-top="0"
   fit-margin-left="0"
   fit-margin-right="0"
   fit-margin-bottom="0"
   inkscape:zoom="1.5546875"
   inkscape:cx="148.90452"
   inkscape:cy="147.29648"
   inkscape:window-width="1920"
   inkscape:window-height="1011"
   inkscape:window-x="0"
   inkscape:window-y="0"
   inkscape:window-maximized="1"
   inkscape:current-layer="svg175" />
<g
   id="Layer_1"
   display="none"
   transform="translate(-106.38,-107.832)">
	<g
   display="inline"
   id="g159">
		<defs
   id="defs112">
			<rect
   id="SVGID_1_"
   width="512"
   height="512"
   x="0"
   y="0" />
		</defs>
		<clipPath
   id="SVGID_2_">
			<use
   xlink:href="#SVGID_1_"
   overflow="visible"
   id="use114"
   x="0"
   y="0"
   width="100%"
   height="100%" />
		</clipPath>
		<g
   clip-path="url(#SVGID_2_)"
   id="g157">
			<rect
   x="439"
   opacity="0.4"
   fill="#ff5050"
   enable-background="new    "
   width="73"
   height="512"
   id="rect117"
   y="0" />
			<rect
   opacity="0.4"
   fill="#ff5050"
   enable-background="new    "
   width="73"
   height="512"
   id="rect119"
   x="0"
   y="0" />
			<rect
   x="73"
   opacity="0.1"
   fill="#ff5050"
   enable-background="new    "
   width="73"
   height="512"
   id="rect121"
   y="0" />
			<rect
   y="73"
   opacity="0.1"
   fill="#ff5050"
   enable-background="new    "
   width="512"
   height="73"
   id="rect123"
   x="0" />
			<rect
   x="366"
   opacity="0.1"
   fill="#ff5050"
   enable-background="new    "
   width="73"
   height="512"
   id="rect125"
   y="0" />
			<rect
   y="366"
   opacity="0.1"
   fill="#ff5050"
   enable-background="new    "
   width="512"
   height="73"
   id="rect127"
   x="0" />
			<rect
   x="-0.5"
   opacity="0.4"
   fill="#ff5050"
   enable-background="new    "
   width="512"
   height="73"
   id="rect129"
   y="0" />
			<rect
   y="439"
   opacity="0.4"
   fill="#ff5050"
   enable-background="new    "
   width="512"
   height="73"
   id="rect131"
   x="0" />
			<path
   fill="none"
   stroke="#ff4d4d"
   stroke-width="0.25"
   d="M 73,0 V 512"
   id="path133" />
			<path
   fill="none"
   stroke="#ff4d4d"
   stroke-width="0.25"
   d="M 146,0 V 512"
   id="path135" />
			<path
   fill="none"
   stroke="#ff4d4d"
   stroke-width="0.25"
   d="M 219,0 V 512"
   id="path137" />
			<path
   fill="none"
   stroke="#ff4d4d"
   stroke-width="0.25"
   d="M 292,0 V 512"
   id="path139" />
			<path
   fill="none"
   stroke="#ff4d4d"
   stroke-width="0.25"
   d="M 366,0 V 512"
   id="path141" />
			<path
   fill="none"
   stroke="#ff4d4d"
   stroke-width="0.25"
   d="M 439,0 V 512"
   id="path143" />
			<path
   fill="none"
   stroke="#ff4d4d"
   stroke-width="0.25"
   d="M 512,73 H 0"
   id="path145" />
			<path
   fill="none"
   stroke="#ff4d4d"
   stroke-width="0.25"
   d="M 512,146 H 0"
   id="path147" />
			<path
   fill="none"
   stroke="#ff4d4d"
   stroke-width="0.25"
   d="M 512,219 H 0"
   id="path149" />
			<path
   fill="none"
   stroke="#ff4d4d"
   stroke-width="0.25"
   d="M 512,292 H 0"
   id="path151" />
			<path
   fill="none"
   stroke="#ff4d4d"
   stroke-width="0.25"
   d="M 512,366 H 0"
   id="path153" />
			<path
   fill="none"
   stroke="#ff4d4d"
   stroke-width="0.25"
   d="M 512,439 H 0"
   id="path155" />
		</g>
	</g>
</g>
<g
   id="Layer_2"
   transform="translate(-106.38,-107.832)">
	<g
   id="g172">
		<rect
   fill="#ffffff"
   width="512"
   height="512"
   id="rect162"
   x="0"
   y="0" />
		<path
   fill-rule="evenodd"
   clip-rule="evenodd"
   fill="#074ba9"
   d="m 327.81,107.833 c 24.605,0 49.205,0 73.811,0 0,98.412 0,196.828 0,295.237 -57.082,0 -114.157,0 -171.239,0 -10.011,-13.308 -15.211,-28.023 -14.636,-44.942 0.551,-16.197 0.113,-32.425 0.111,-48.646 -0.001,-15.551 0,-31.103 0,-48.489 7.783,0 13.548,0.133 19.306,-0.023 23.549,-0.639 47.202,-0.194 70.621,-2.3 45.64,-4.111 73.454,-37.753 69.291,-82.233 -2.956,-31.583 -20.637,-53.228 -47.265,-68.604 z"
   id="path164" />
		<path
   display="none"
   fill-rule="evenodd"
   clip-rule="evenodd"
   fill="none"
   d="m 282,207 c 9.02,5.208 15.008,12.539 16.009,23.236 1.41,15.065 -8.011,26.46 -23.47,27.853 -7.932,0.713 -15.943,0.563 -23.919,0.779 -1.95,0.053 -3.903,0.008 -6.539,0.008 0,5.889 0,11.156 0,16.424 0,5.494 0.149,10.99 -0.038,16.477 -0.195,5.73 1.566,10.715 4.957,15.223 -9.333,0 -18.667,0 -28,0 3.671,-4.373 5.079,-9.393 5.046,-15.109 -0.13,-22.775 -0.139,-45.554 -0.006,-68.33 0.041,-6.983 -1.916,-12.711 -8.041,-16.561 8.667,0 17.333,0 26,0 0,16.199 0,32.399 0,48.705 5.6,0 10.274,0.377 14.865,-0.077 10.243,-1.012 17.031,-7.384 19.148,-17.372 2.934,-13.835 -1.702,-23.485 -15.014,-31.256 6.336,0 12.668,0 19.002,0 z"
   id="path166" />
		<path
   fill-rule="evenodd"
   clip-rule="evenodd"
   fill="#109d49"
   d="m 138.856,107.833 c 18.084,11.365 23.859,28.276 23.738,48.893 -0.394,67.242 -0.365,134.494 0.019,201.735 0.096,16.878 -4.06,31.698 -14.899,44.608 -13.777,0 -27.556,0 -41.334,0 0,-98.409 0,-196.825 0,-295.237 10.825,0.001 21.652,0.001 32.476,0.001 z"
   id="path168" />
		<path
   fill-rule="evenodd"
   clip-rule="evenodd"
   fill="#074ba9"
   d="m 271.715,107.833 c 39.301,22.942 52.988,51.434 44.325,92.279 -6.249,29.489 -26.291,48.302 -56.533,51.289 -13.555,1.341 -27.354,0.228 -43.888,0.228 0,-48.141 0,-95.97 0,-143.796 18.699,0 37.395,0 56.096,0 z"
   id="path170" />
	</g>
</g>
<rect
   style="fill:none"
   id="rect307"
   width="295.241"
   height="295.23801"
   x="0"
   y="0" /></svg>
